# xmcd
#
# Track frame offsets:
#	150
#	35237
#	86797
#	138132
#	184192
#	197495
#	248215
#	323720
#
# Disc length: 4391 seconds
#
# Revision: 0
# Processed by: cddbd v1.5.2PL0 Copyright (c) Steve Scherf et al.
# Submitted via: audiograbber 1.83.01
#
DISCID=6c112508
DTITLE=Dream Theater - Original Album Classics [CD 5) - Train Of Thought
DYEAR=2003
DGENRE=Progressive Metal
TTITLE0=As I Am
TTITLE1=This Dying Soul
TTITLE2=Endless Sacrifice
TTITLE3=Honor Thy Father
TTITLE4=Vacant
TTITLE5=Stream Of Consciousness
TTITLE6=In The Name Of God
TTITLE7=Hööggää Trimöödüü
EXTD=
EXTT0=
EXTT1=
EXTT2=
EXTT3=
EXTT4=
EXTT5=
EXTT6=
EXTT7=
PLAYORDER=
